<svg xmlns="http://www.w3.org/2000/svg" width="1024" height="1024" viewBox="0 0 1024 1024" version="1.1">
	<path d="M 490.500 245.113 C 487.200 245.593, 481.125 246.474, 477 247.071 C 470.350 248.034, 459.605 250.572, 447.500 254.038 C 442.308 255.525, 420.945 264.871, 419 266.506 C 418.175 267.200, 415.489 268.779, 413.031 270.016 C 410.573 271.252, 407.423 273.065, 406.031 274.044 C 404.639 275.023, 392.700 282.914, 379.500 291.580 C 333.466 321.800, 274.462 360.878, 269.320 364.550 C 260.661 370.733, 260.370 372.039, 259.530 408.500 C 258.695 444.793, 258.730 576.707, 259.586 615 C 260.384 650.756, 258.980 647.915, 284 664.406 C 289.225 667.851, 296.875 672.976, 301 675.797 C 320.127 688.877, 359.121 715.288, 374.500 725.579 C 383.850 731.835, 395.325 739.638, 400 742.920 C 419.122 756.341, 441.137 766.517, 462.531 771.821 C 486.300 777.716, 512.292 779.366, 536.030 776.488 C 553.282 774.397, 560.614 772.775, 574.447 767.990 C 596.728 760.282, 604.817 755.474, 666.500 713.277 C 674.200 708.010, 696.925 692.704, 717 679.264 C 737.075 665.824, 755.151 653.123, 757.168 651.040 C 759.185 648.957, 761.320 645.509, 761.912 643.377 C 763.358 638.169, 763.427 382.078, 761.984 376.882 C 759.561 368.161, 757.596 366.589, 711.494 336.500 C 698.011 327.700, 679.428 315.550, 670.197 309.500 C 601.430 264.426, 605.001 266.570, 586.240 259.096 C 558.225 247.935, 514.763 241.587, 490.500 245.113 M 474 270.475 C 463.010 272.335, 450.251 276.507, 437.534 282.397 C 427.680 286.961, 418.861 292.534, 353 335.817 C 310.794 363.554, 300.246 370.573, 296.277 373.560 C 291.160 377.412, 290.022 376.133, 310.765 389.852 C 327.707 401.057, 330.023 402.647, 368.500 429.512 C 371.800 431.816, 377.425 435.704, 381 438.152 C 429.053 471.063, 449.530 485.193, 453.951 488.489 C 460.226 493.168, 461.133 492.957, 468.553 485.091 C 472.232 481.191, 475.750 477.996, 476.371 477.991 C 476.992 477.986, 480.021 475.849, 483.102 473.241 C 486.183 470.634, 489.980 467.572, 491.540 466.438 C 494.206 464.501, 494.284 464.243, 492.837 462.178 C 491.491 460.256, 479.257 451.542, 448.829 430.831 C 444.248 427.713, 435.775 421.910, 430 417.935 C 424.225 413.960, 412.525 405.968, 404 400.174 C 381.262 384.720, 380.104 383.607, 380.035 377.154 C 379.980 371.919, 382.700 368.560, 390.982 363.633 C 395.198 361.126, 400.864 357.459, 403.574 355.485 C 410.739 350.266, 430.461 337.633, 438 333.435 C 459.574 321.419, 468.981 317.786, 484 315.670 C 506.452 312.507, 523.634 318.577, 540.623 335.675 C 559.338 354.508, 568 374.071, 568 397.500 C 568 419.016, 560.672 437.162, 545.105 454.195 C 539.073 460.795, 533.512 465.154, 513.463 479 C 488.896 495.965, 479.006 504.736, 465.381 521.640 C 442.272 550.309, 432.909 578.121, 434.288 614 C 435.454 644.350, 444.115 670.282, 462.212 697.611 C 470.374 709.936, 489.698 730.178, 499.167 736.320 C 510.213 743.486, 522.981 747.942, 537.082 749.551 C 544.356 750.382, 559.530 748.504, 566.775 745.878 C 578.863 741.495, 585.556 738.737, 587 737.544 C 587.825 736.862, 589.175 736.057, 590 735.754 C 591.737 735.117, 620.809 715.614, 651.592 694.435 C 654.841 692.200, 662.675 686.923, 669 682.710 C 675.325 678.497, 681.818 674.026, 683.430 672.775 C 685.041 671.524, 687.794 669.600, 689.547 668.500 C 691.300 667.400, 695.998 664.250, 699.987 661.500 C 703.976 658.750, 709.104 655.375, 711.383 654 C 713.662 652.625, 719.064 649.025, 723.388 646 C 727.712 642.975, 732.122 639.994, 733.188 639.376 C 734.255 638.758, 736.469 636.967, 738.109 635.395 L 741.091 632.539 740.905 516.769 C 740.735 411.096, 740.579 401.001, 739.110 401.016 C 736.971 401.038, 733.084 403.370, 705.250 421.323 L 696 427.290 696 516.996 C 696 578.441, 695.661 607.674, 694.924 609.788 C 693.333 614.353, 693.382 614.318, 593 681.837 C 581.175 689.791, 568.575 697.694, 565 699.399 C 558.849 702.334, 557.856 702.500, 546.500 702.500 C 534.955 702.500, 534.244 702.375, 527.754 699.201 C 516.837 693.862, 507.409 684.064, 494.107 664.234 C 487.727 654.722, 480.216 638.388, 478.366 630 C 476.010 619.316, 475.991 598.513, 478.329 590 C 482.382 575.244, 490.080 560.372, 500.845 546.500 C 506.447 539.281, 525.936 522.097, 532.172 518.879 C 533.641 518.121, 536.341 516.277, 538.172 514.783 C 541.664 511.932, 546.920 508.218, 558.391 500.496 C 567.859 494.123, 582.442 479.224, 589.221 469 C 598.601 454.851, 604.152 442.194, 609.615 422.500 C 623.096 373.900, 593.806 311.118, 544.075 282.020 C 534.995 276.707, 522.046 271.856, 513.042 270.394 C 502.673 268.711, 484.193 268.749, 474 270.475 M 584.174 284.999 C 590.677 290.868, 601.328 303.577, 608.019 313.453 C 615.904 325.089, 623.944 342.032, 629.396 358.500 L 632.045 366.500 646.081 376.500 C 669.236 392.996, 684.177 403.006, 686.526 403.596 C 688.196 404.015, 692.542 401.604, 704.134 393.826 C 712.598 388.147, 721.239 382.600, 723.335 381.500 C 728.497 378.791, 729.384 377.588, 727.932 375.262 C 726.647 373.205, 693.324 350.816, 616.890 300.658 C 603.870 292.113, 580.536 279, 578.353 279 C 577.899 279, 580.519 281.699, 584.174 284.999 M 483.500 337.898 C 472.611 340.865, 464.195 344.313, 453.937 350.013 C 443.729 355.686, 410.979 376.995, 411.034 377.929 C 411.052 378.243, 420.122 384.575, 431.188 392 C 442.255 399.425, 463.053 413.682, 477.405 423.683 C 507.669 444.771, 513.514 448.462, 516.307 448.252 C 519.136 448.039, 530.216 436.852, 535.483 428.892 C 544.282 415.593, 547.953 398.092, 544.530 385.749 C 541.721 375.615, 534.703 362.051, 528.848 355.439 C 514.285 338.993, 499.903 333.430, 483.500 337.898 M 634.629 406.250 C 633.282 426.988, 626.821 450.246, 617.752 467 C 609.996 481.328, 604.534 488.571, 591.876 501.308 L 579.147 514.117 585.739 518.808 C 589.364 521.389, 605.875 533.625, 622.429 546 C 670.407 581.865, 671.614 582.720, 672.724 581.609 C 673.025 581.308, 673.208 546.372, 673.131 503.973 C 673.012 437.926, 672.779 426.473, 671.506 424.011 C 670.252 421.587, 637.777 396.053, 635.897 396.013 C 635.566 396.006, 634.995 400.613, 634.629 406.250 M 282 516.442 L 282 635.885 293.250 643.282 C 299.438 647.351, 306.975 652.296, 310 654.271 C 313.025 656.246, 319.550 660.680, 324.500 664.125 C 329.450 667.569, 339.857 674.688, 347.627 679.944 C 355.397 685.200, 374.616 698.393, 390.337 709.262 C 417.294 727.901, 437.366 740.263, 443 741.696 C 444.375 742.045, 448.649 743.627, 452.497 745.211 C 459.270 747.998, 477.219 753, 480.448 753 C 481.320 753, 478.005 749.288, 473.080 744.750 C 468.155 740.212, 461.488 733.575, 458.263 730 C 450.140 720.994, 438.187 703.322, 432.556 691.992 C 429.961 686.771, 427.087 681.660, 426.169 680.633 C 423.530 677.681, 386.721 652.405, 361.500 636.226 C 355.450 632.345, 347.800 627.328, 344.500 625.077 C 341.200 622.825, 336.250 619.524, 333.500 617.742 C 324.083 611.637, 324.754 619.846, 325.347 518 C 325.744 449.916, 325.585 428.120, 324.684 426.913 C 324.033 426.041, 317.932 421.541, 311.127 416.913 C 294.141 405.362, 295.142 406.067, 288.938 401.286 C 285.879 398.929, 283.066 397, 282.688 397 C 282.309 397, 282 450.749, 282 516.442 M 349.232 521.514 C 349.487 596.586, 349.586 600.334, 351.328 601.391 C 355.855 604.136, 373.521 616.050, 381.126 621.486 C 398.273 633.742, 409.505 641, 411.326 641 C 412.979 641, 413.132 640.438, 412.612 636.250 C 410.931 622.698, 410.841 597.079, 412.426 583.500 C 414.038 569.695, 414.541 567.375, 418.066 557.500 C 419.047 554.750, 420.362 550.835, 420.986 548.799 C 421.611 546.764, 423.115 543.614, 424.329 541.799 C 425.542 539.985, 428.397 535.350, 430.673 531.500 C 432.949 527.650, 437.122 521.376, 439.947 517.558 L 445.082 510.615 441.791 507.441 C 439.981 505.695, 431.975 499.847, 424 494.446 C 416.025 489.044, 404.775 481.407, 399 477.474 C 393.225 473.541, 383.550 466.963, 377.500 462.857 C 371.450 458.750, 363.800 453.347, 360.500 450.850 C 357.200 448.352, 353.254 445.507, 351.732 444.528 L 348.964 442.746 349.232 521.514 M 553.342 532.294 C 534.391 545.239, 524.351 553.867, 525.316 556.381 C 525.657 557.269, 528.033 559.459, 530.596 561.248 C 536.600 565.438, 578.230 596.295, 587.962 603.769 C 592.066 606.921, 597.016 610.591, 598.962 611.925 C 600.908 613.259, 605.650 616.893, 609.500 620 C 619.220 627.845, 624.111 631, 626.552 631 C 627.700 631, 630.409 629.510, 632.570 627.688 C 636.730 624.183, 648.806 615.882, 655.500 611.927 C 657.700 610.627, 660.352 608.781, 661.393 607.824 C 663.142 606.217, 663.167 605.903, 661.716 603.690 C 660.853 602.373, 655.727 598.145, 650.324 594.296 C 644.921 590.446, 634.947 583.292, 628.160 578.398 C 621.373 573.504, 613.925 568.150, 611.609 566.500 C 602.268 559.847, 566.318 532.009, 564.566 530.073 C 561.947 527.179, 560.375 527.490, 553.342 532.294 M 507.971 577.750 C 500.036 591.112, 497.974 612.983, 503.086 629.548 C 508.307 646.468, 523.083 668.892, 533.600 675.859 C 537.920 678.720, 539.052 679, 546.300 679 C 553.367 679, 554.829 678.661, 559.378 675.967 C 562.195 674.299, 565.400 672.402, 566.500 671.751 C 573.340 667.703, 588 657.683, 588 657.055 C 588 656.642, 589.835 655.476, 592.078 654.465 C 594.322 653.453, 597.999 650.942, 600.250 648.884 L 604.343 645.143 600.855 641.821 C 598.936 639.995, 593.347 635.594, 588.433 632.042 C 580.149 626.052, 548.823 602.674, 527.590 586.633 C 522.590 582.857, 517.022 578.469, 515.215 576.883 C 513.409 575.298, 511.541 574, 511.064 574 C 510.587 574, 509.195 575.688, 507.971 577.750" stroke="none" fill="#cfccc6" fill-rule="evenodd"/>
</svg>